<svg xmlns="http://www.w3.org/2000/svg" viewBox="0 0 100 100">
  <!-- Background rounded rectangle -->
  <rect width="100" height="100" rx="18" fill="#e8725a"/>

  <!-- Photo frame / card -->
  <rect x="8" y="8" width="84" height="84" rx="8" fill="white" opacity="0.95"/>

  <!-- Sky gradient area -->
  <rect x="14" y="14" width="72" height="52" rx="4" fill="#ffe0b2"/>

  <!-- Sun -->
  <circle cx="60" cy="30" r="10" fill="#ffb74d"/>

  <!-- Mountains / hills -->
  <polygon points="14,66 32,43 50,60 62,47 86,66" fill="#a5d6a7" opacity="0.8"/>
  <polygon points="14,66 38,50 62,66" fill="#81c784" opacity="0.9"/>

  <!-- Heart -->
  <g transform="translate(50, 79) scale(0.75)">
    <path d="M0,-8 C-4,-16 -16,-16 -16,-6 C-16,2 0,14 0,14 C0,14 16,2 16,-6 C16,-16 4,-16 0,-8Z" fill="#e8725a"/>
  </g>

  <!-- Bookmark ribbon -->
  <path d="M72,8 L72,32 L78,25 L84,32 L84,8 Z" fill="#e8725a" opacity="0.9"/>
</svg>
